<svg xmlns="http://www.w3.org/2000/svg" width="177.583" height="38.04"><path fill="red" d="M9.35 21.43v8.68h2.44V7.45H8.15c-3.59 0-6.6 2.38-6.6 7.13 0 3.39 1.33 5.23 3.33 6.25L.63 30.11h2.83l3.86-8.68zm0-2.03h-1.3c-2.12 0-3.87-1.17-3.87-4.82 0-3.77 1.91-5.07 3.87-5.07h1.3z"/><path d="M36.26 28.09H35V14.14h-7.42v1.36c0 4.25-.16 9.19-1.62 12.59h-.98v5.16h2.22v-3.14h6.85v3.14h2.21zm10.75.95l-.57-1.9c-.63.44-1.74 1.07-3.14 1.07-1.96 0-2.98-1.9-2.98-5.51h6.66v-1.37c0-5.42-1.74-7.41-4.41-7.41-3.39 0-4.82 3.74-4.82 8.87 0 4.92 2.03 7.55 5.33 7.55 1.59 0 2.92-.51 3.93-1.3zm-25.9-14.9v6.78h-3.68v-6.78h-2.47v15.97h2.47v-7.16h3.68v7.16h2.44V14.14zM56.2 30.11h2.7l-4.53-8.46 3.96-7.51h-2.51l-3.83 7.38v-7.38h-2.47v15.97h2.47v-7.95zm8.5.23c1.46 0 2.47-.48 3.33-1.21l-.57-1.84c-.57.51-1.49.99-2.7.99-1.99 0-2.95-2.29-2.95-6.28 0-4.03 1.27-6.02 3.05-6.02 1.01 0 1.96.54 2.63 1.11l.35-2.35c-.7-.44-1.52-.82-2.95-.82-3.74 0-5.67 3.2-5.67 8.21 0 5.45 2.06 8.21 5.48 8.21zm-32.14-2.25h-4.25c1.33-3.4 1.49-8.31 1.49-11.67v-.28h2.76zm10.01-12.14c1.43 0 1.87 1.99 1.87 4.72h-4.09c.16-2.85.7-4.72 2.22-4.72zm36.71-3.56c.19-1.04.41-2.21.51-2.98h.06c.03.77.19 2.03.38 3.02l1.97 9.35h-4.85zm4.66 17.72h1.55L80.71 7.45h-1.65l-4.82 22.66h1.4l1.45-7.03h5.36zm3.62 5.08c2.25 0 3.2-2.1 3.74-4.25l4.09-16.8h-1.34l-2.47 10.43c-.28 1.17-.54 2.34-.76 3.61h-.09a36.42 36.42 0 0 0-.67-3.61l-2.54-10.43h-1.49L90 30.56l-.13.47c-.48 1.78-1.24 2.83-2.31 2.83a4.1 4.1 0 0 1-.99-.13l.16 1.39c.22.04.48.07.83.07zm11.53-11.67c.42-3.71.51-8.18.51-8.18h4.06v13.57h-6.09c.83-.95 1.24-2.73 1.52-5.39zm6.38 9.73h1.17v-4.34h-1.46V14.14h-6.91s-.06 5.1-.48 9.03c-.31 3.01-.91 5.2-1.9 5.74h-.66v4.34h1.17l.19-3.14h8.69zm10.9-3.14h1.43V14.14h-1.3l-5.2 11.22c-.32.7-.64 1.39-.86 2.12h-.09c.06-.69.12-1.39.12-2.25V14.14h-1.39v15.97h1.27l5.2-11.25c.35-.7.63-1.36.85-2.06h.1c-.07.67-.13 1.36-.13 2.19zm12.74-14.74v-1.23h-8.87v1.23h3.71v14.74h1.49V15.37zm5.84 15.06c2.75 0 4.88-3.1 4.88-8.4 0-5.48-2.13-8.21-4.88-8.21-2.76 0-4.88 3.08-4.88 8.4 0 5.45 2.12 8.21 4.88 8.21zm0-1.2c-1.87 0-3.39-2.13-3.39-7.1 0-4.85 1.52-7.07 3.39-7.07s3.39 2.06 3.39 7.07c0 4.82-1.52 7.1-3.39 7.1zm12.04 0c-1.42 0-2.31-.64-2.95-1.94v-8.94c.7-1.71 1.91-3.23 3.33-3.23 1.84 0 2.98 2.47 2.98 6.66 0 5.04-1.33 7.45-3.36 7.45zm-.09 1.17c2.98 0 4.94-2.88 4.94-8.75 0-4.63-1.55-7.83-4.21-7.83-1.78 0-2.95 1.43-3.65 2.95l-.13-2.63h-1.3v20.92h1.49v-6.05a3.64 3.64 0 0 0 2.86 1.39zm15.12-.29h1.43V14.14h-1.3l-5.2 11.22c-.32.7-.64 1.39-.86 2.12H156c.06-.69.12-1.39.12-2.25V14.14h-1.39v15.97H156l5.19-11.25c.35-.7.64-1.36.86-2.06h.1c-.07.67-.13 1.36-.13 2.19zm12.33 0h1.43V14.14h-1.3l-5.2 11.22c-.32.7-.64 1.39-.86 2.12h-.09c.06-.69.12-1.39.12-2.25V14.14h-1.39v15.97h1.27l5.2-11.25c.34-.7.63-1.36.85-2.06h.1c-.07.67-.13 1.36-.13 2.19z"/></svg>